<svg xmlns="http://www.w3.org/2000/svg" width="67.66" height="69.13" viewBox="0 0 67.66 69.13">
	<style type="text/css">
		.st0{stroke:#c80000;fill:none;stroke-width:1.5;stroke-linecap:round;stroke-linejoin:round;}
	</style>
	<path class="st0" d="M35.03,30.48L41.02,30.48M35.03,33.28L41.02,33.28M30.83 29.44L25.93 29.44L25.93 34.33L30.83 34.33ZM35.03,40.18L41.02,40.18M35.03,42.98L41.02,42.98M25.93 39.13L30.83 39.13L30.83 44.03L25.93 44.03ZM35.03,49.87L41.02,49.87M35.03,52.67L38.02,52.67M30.83 48.82L25.93 48.82L25.93 53.72L30.83 53.72ZM44.23,68.38L23.42,68.38C21.93,68.38 20.7,67.15 20.7,65.66L20.7,19.94C20.7,18.44 21.93,17.22 23.42,17.22L44.23,17.22C45.73,17.22 46.96,18.44 46.96,19.94L46.96,65.66C46.96,67.15 45.73,68.38 44.23,68.38ZM35.52,64.08C35.52,65.02 34.77,65.78 33.83,65.78C32.89,65.78 32.13,65.02 32.13,64.08C32.13,63.15 32.89,62.39 33.83,62.39C34.77,62.39 35.52,63.15 35.52,64.08ZM23.82,23.13L43.84,23.13M43.84,60.27L23.82,60.27M32.79,19.99L34.87,19.99M19.32,9.4C17.8,11.07 16.71,13.14 16.23,15.43M24.59,5.91C23.97,6.13 23.37,6.39 22.8,6.7M60.07,30.48C60.12,30.06 60.15,29.62 60.15,29.18M55.52,37.89C57.25,36.72 58.61,35.05 59.4,33.08M46.96,42.25L52.03,42.25C59,42.25 64.65,36.59 64.65,29.62C64.65,23.19 59.84,17.89 53.61,17.1C52.94,12.09 48.65,8.22 43.45,8.22C42.45,8.22 41.49,8.37 40.58,8.63C37.9,3.92 32.85,0.75 27.05,0.75C18.46,0.75 11.5,7.71 11.5,16.3C11.5,16.64 11.51,16.97 11.53,17.31C5.89,18.57 1.67,23.6 1.67,29.62C1.67,36.59 7.32,42.25 14.3,42.25L20.42,42.25M9.43,58.69L5.42,58.69C2.84,58.69 0.74,56.6 0.74,54.02C0.74,51.44 2.84,49.35 5.42,49.35L16.22,49.35M6.88,56.14L9.43,58.69L6.88,61.24M58.23,55.5L62.24,55.5C64.82,55.5 66.91,57.59 66.91,60.17C66.91,62.75 64.82,64.84 62.24,64.84L51.44,64.84M60.78,58.05L58.23,55.5L60.78,52.95"/>
</svg>