<svg id="Слой_1" data-name="Слой 1" xmlns="http://www.w3.org/2000/svg" xmlns:xlink="http://www.w3.org/1999/xlink" viewBox="0 0 91.16 43.83"><defs><style>.cls-1{fill:none;}.cls-2{clip-path:url(#clip-path);}.cls-3{fill:#c80000;}</style><clipPath id="clip-path" transform="translate(0 0)"><rect class="cls-1" width="91.16" height="43.83"/></clipPath></defs><g class="cls-2"><path class="cls-3" d="M43.44,28.7A6.49,6.49,0,0,1,37.18,22a6.5,6.5,0,0,1,6.26-6.71A6.5,6.5,0,0,1,49.69,22H55c0-6.87-5.2-12.45-11.6-12.45S31.83,15.12,31.83,22,37,34.44,43.44,34.44H91.16V28.7Z" transform="translate(0 0)"/><path class="cls-3" d="M91.16,43.69V37.57H43.44c-8,0-14.53-7-14.53-15.58S35.42,6.41,43.44,6.41,58,13.39,58,22h5.7C63.66,10,54.6.3,43.44.3S23.21,10,23.21,22s9.06,21.7,20.23,21.7Z" transform="translate(0 0)"/></g><polygon class="cls-3" points="0 8.65 0 14.61 5.7 14.61 5.7 43.83 10.84 43.83 10.84 8.65 0 8.65"/><polygon class="cls-3" points="5.7 0 5.7 6.26 13.21 6.26 13.21 43.84 18.49 43.84 18.49 0 5.7 0"/></svg>