<svg xmlns="http://www.w3.org/2000/svg" viewBox="0 0 21.17 27.27"><defs><style>.cls-1{fill:none;stroke:#ffffff;stroke-linecap:round;stroke-linejoin:round;stroke-width:0.96px;}</style></defs><g id="Слой_2" data-name="Слой 2"><g id="Слой_1-2" data-name="Слой 1"><path class="cls-1" d="M20.69,24.25a20.78,20.78,0,0,1-10.1,2.54A20.79,20.79,0,0,1,.48,24.25m14.3-7.55,4.69,2a2.33,2.33,0,0,1,1.22,2.19v3.39M7.32,15l3.22,2.42M13.76,15l-3.22,2.42m0,0L8.72,19.44,6.27,16.77,7.32,15m-1,1.73L1.7,18.59A2.58,2.58,0,0,0,.48,20.77v3.48m10.06-6.86,1.82,2.05,2.45-2.67L13.76,15M12.91,5l-.24-1.22s-.5,0-1.34.74a3.13,3.13,0,0,1-3.7.34m7.51,2.87a6,6,0,0,0,.29-1.86,5.11,5.11,0,0,0-5-5.38,5.11,5.11,0,0,0-5,5.38A6.29,6.29,0,0,0,5.8,7.72a1.45,1.45,0,0,0-.64,1.2,1.43,1.43,0,0,0,1,1.39c.71,2.12,2.36,3.61,4.28,3.61s3.58-1.49,4.29-3.61a1.45,1.45,0,0,0,.38-2.59Z"/></g></g></svg>