<svg xmlns="http://www.w3.org/2000/svg" width="56.08" height="51.93" viewBox="0 0 56.08 51.93">
	<style type="text/css">
		.st0{stroke:#c80000;fill:none;stroke-width:0.95;stroke-linecap:round;stroke-linejoin:round;}
	</style>
	<path class="st0" d="M11.27,41.66L32.76,41.66M12.41,41.66L12.41,31.76M18.82,41.66L18.82,31.76M22.02,41.66L22.02,35.12M22.02,32.59L22.02,31.54M28.42,41.66L28.42,34.24M25.22,41.66L25.22,28.41M31.62,41.66L31.62,29.85M15.62,41.66L15.62,29.07M18.93,16L32.31,16M18.93,19.29L32.31,19.29M11.73,22.58L25.62,22.58M15.77 15.62L11.77 15.62L11.77 19.63L15.77 19.63ZM17.82,6.39L17.82,0.47L53.07,0.47M47.55,42.61L39.12,42.61M33.12,48.23L33.12,45.02L0.48,45.02L0.48,48.23C0.48,50.01 1.92,51.45 3.7,51.45L36.34,51.45C34.56,51.45 33.12,50.01 33.12,48.23ZM36.18,51.45C37.6,51.45 38.75,50.3 38.75,48.88L38.75,11.17C38.75,9.57 40.05,8.27 41.64,8.27C43.24,8.27 44.54,9.57 44.54,11.17L44.54,39.6C44.54,41.26 45.89,42.61 47.55,42.61L47.55,42.61C49.21,42.61 50.55,41.26 50.55,39.6L50.55,3C50.55,1.6 51.68,0.47 53.07,0.47C54.47,0.47 55.6,1.6 55.6,3L55.6,6.86L50.55,6.86M41.44,8.27L10.35,8.27C7.95,8.27 6.01,10.21 6.01,12.61L6.01,45.02"/>
</svg>