<svg xmlns="http://www.w3.org/2000/svg" width="52.76" height="55.72" viewBox="0 0 52.76 55.72">
	<style type="text/css">
		.st0{stroke:#c80000;fill:none;stroke-width:0.95;stroke-linecap:round;stroke-linejoin:round;}
	</style>
	<path class="st0" d="M30.93,36.17C31.12,35.59 31.22,34.97 31.22,34.32C31.22,31.24 29,28.94 26.26,28.94C23.53,28.94 21.31,31.24 21.31,34.32C21.31,34.97 21.41,35.59 21.59,36.17C21.21,36.43 20.95,36.87 20.95,37.38C20.95,38.04 21.39,38.6 21.98,38.77C22.69,40.89 24.34,42.37 26.26,42.37C28.19,42.37 29.84,40.89 30.55,38.77C31.14,38.6 31.57,38.04 31.57,37.38C31.57,36.87 31.32,36.43 30.93,36.17ZM28.7,33.45L28.46,32.22C28.46,32.22 27.96,32.21 27.12,32.97C25.36,34.55 23.42,33.3 23.42,33.3M26.33,45.84L28.15,47.89L30.6,45.23L29.55,43.43M22.08,45.15L17.49,47.04C17.2,47.22 16.95,47.45 16.76,47.72C16.44,48.16 16.27,48.68 16.27,49.23L16.27,52.71M26.33,45.84L24.51,47.89L22.06,45.23L23.11,43.43M29.55,43.43L26.33,45.84M23.11,43.43L26.33,45.84M30.56,45.15L35.26,47.13C36.13,47.57 36.48,48.42 36.48,49.32L36.48,49.51L36.48,52.71M36.48,52.71C33.61,54.31 30.13,55.24 26.38,55.24C22.62,55.24 19.14,54.31 16.27,52.71M46.73,7.71C46.91,7.13 47.01,6.51 47.01,5.86C47.01,2.78 44.79,0.48 42.06,0.48C39.32,0.48 37.1,2.78 37.1,5.86C37.1,6.51 37.2,7.13 37.38,7.71C37,7.97 36.75,8.41 36.75,8.92C36.75,9.58 37.18,10.14 37.77,10.31C38.48,12.43 40.13,13.91 42.06,13.91C43.98,13.91 45.63,12.43 46.34,10.31C46.93,10.14 47.37,9.58 47.37,8.92C47.37,8.41 47.11,7.97 46.73,7.71ZM44.5,4.99L44.26,3.76C44.26,3.76 43.76,3.75 42.91,4.51C41.15,6.09 39.22,4.84 39.22,4.84M42.12,17.38L43.94,19.43L46.39,16.77L45.34,14.97M37.88,16.69L33.28,18.58C32.99,18.76 32.74,18.99 32.55,19.26C32.24,19.7 32.06,20.22 32.06,20.77L32.06,24.25M42.12,17.38L40.3,19.43L37.85,16.77L38.9,14.97M45.34,14.97L42.12,17.38M38.9,14.97L42.12,17.38M46.36,16.69L51.06,18.67C51.93,19.11 52.28,19.96 52.28,20.86L52.28,21.05L52.28,24.25M52.28,24.25C49.41,25.85 45.92,26.78 42.17,26.78C38.42,26.78 34.93,25.85 32.06,24.25M15.14,7.71C15.32,7.13 15.42,6.51 15.42,5.86C15.42,2.78 13.2,0.48 10.47,0.48C7.73,0.48 5.51,2.78 5.51,5.86C5.51,6.51 5.61,7.13 5.8,7.71C5.41,7.97 5.16,8.41 5.16,8.92C5.16,9.58 5.59,10.14 6.18,10.31C6.89,12.43 8.54,13.91 10.47,13.91C12.39,13.91 14.04,12.43 14.75,10.31C15.34,10.14 15.78,9.58 15.78,8.92C15.78,8.41 15.52,7.97 15.14,7.71ZM12.91,4.99L12.67,3.76C12.67,3.76 12.17,3.75 11.32,4.51C9.57,6.09 7.63,4.84 7.63,4.84M10.53,17.38L12.36,19.43L14.8,16.77L13.75,14.97M6.29,16.69L1.69,18.58C1.4,18.76 1.16,18.99 0.96,19.26C0.65,19.7 0.48,20.22 0.48,20.77L0.48,24.25M10.53,17.38L8.71,19.43L6.27,16.77L7.32,14.97M13.75,14.97L10.53,17.38M7.32,14.97L10.53,17.38M14.77,16.69L19.47,18.67C20.34,19.11 20.69,19.96 20.69,20.86L20.69,21.05L20.69,24.25M20.69,24.25C17.82,25.85 14.34,26.78 10.58,26.78C6.83,26.78 3.35,25.85 0.48,24.25M33.53,9.52C31.32,8.62 28.91,8.12 26.38,8.12C23.84,8.12 21.43,8.62 19.22,9.52M8.05,31.43C9.14,35.95 11.87,39.84 15.56,42.43M37.19,42.43C40.89,39.84 43.61,35.95 44.71,31.43M42.2,42.88C42.01,43.07 41.82,43.25 41.63,43.43M46.65,36.6C46.44,37.03 46.22,37.45 45.99,37.87C45.48,38.79 44.9,39.68 44.27,40.51M26.38,4.55C27.81,4.55 29.22,4.68 30.58,4.94M21.56,5.07C22.42,4.88 23.3,4.74 24.19,4.65M5.88,36.11C5.33,34.87 4.88,33.57 4.56,32.22M8.4,40.4C8,39.86 7.62,39.3 7.26,38.72"/>
</svg>